<svg width="137" height="30" viewBox="0 0 137 30" fill="none" xmlns="http://www.w3.org/2000/svg">
<g clip-path="url(#clip0_1_6841)">
<path d="M79.2615 9C80.4859 4.07527 77.5002 0 70.1862 0H54.3339L48.3947 24.086L51.8422 30.0107H63.1193C70.5084 30.0107 76.2328 26.5591 77.7042 20.5591C78.4453 17.4839 77.5861 15.3333 75.6529 14.2581V14.1828C77.4862 12.9938 78.7815 11.1334 79.2615 9ZM69.5955 20.3656C69.2948 21.6237 68.4463 22.914 64.9343 22.914H57.7385L58.9951 17.7527H66.1587C69.6277 17.7419 69.8855 19.0645 69.5525 20.3656H69.5955ZM71.0347 9.16129C70.7769 10.129 70.0358 11.3118 67.0072 11.3118H60.5631L61.6371 7.11828H68.0812C71.1421 7.09677 71.2924 8.08602 71.0347 9.16129Z" fill="#14A0FF"/>
<path d="M89.239 18.3871H103.674L105.317 11.2903H90.9789L92.0959 7.09677H106.294L107.937 0H84.6315L77.2424 30H103.641L105.371 22.9032H88.1757L89.239 18.3871Z" fill="#14A0FF"/>
<path d="M109.957 0L108.303 7.09677H116.927L111.267 30H120.321L125.991 7.09677H135.228L137 0H109.957Z" fill="#14A0FF"/>
<path d="M9.47272 30H0.343681L4.29602 13.9785L5.20892 11.5591L2.79241 13.9785L0.1074 16.6989L0 8.69893L9.47272 0H16.8511L9.47272 30Z" fill="white"/>
<path d="M42.4339 17.5699L39.5234 12.6344L53.6465 0H40.49L35.12 5.16129L16.9048 21.8817L8.16245 30H20.6102L29.9647 21.6452L33.1116 27.0215C34.1856 28.3763 35.6999 30.0215 42.1225 30.0215H49.6405L42.4447 17.5591L42.4339 17.5699Z" fill="white"/>
<path d="M34.1104 3.50538V3.44086C33.3046 2.31534 32.2293 1.41047 30.9833 0.809269C29.7373 0.208069 28.3604 -0.070198 26.979 8.93138e-07H17.2592L24.5088 12.3441L34.1104 3.50538Z" fill="white"/>
</g>
<defs>
<clipPath id="clip0_1_6841">
<rect width="137" height="30" fill="white"/>
</clipPath>
</defs>
</svg>
