<svg width="21" height="19" viewBox="0 0 21 19" fill="none" xmlns="http://www.w3.org/2000/svg">
<g filter="url(#filter0_d_1_7205)">
<path d="M15.8112 6.34654C15.9985 6.15904 16.1037 5.90487 16.1037 5.63987C16.1037 5.37488 15.9985 5.1207 15.8112 4.93321L12.0406 1.16054C11.853 0.972947 11.5985 0.867554 11.3332 0.867554C11.0679 0.867554 10.8135 0.972947 10.6259 1.16054C10.4383 1.34814 10.3329 1.60258 10.3329 1.86787C10.3329 2.13317 10.4383 2.38761 10.6259 2.57521L12.6899 4.63987H4.99991C4.73468 4.63987 4.48033 4.74523 4.2928 4.93277C4.10526 5.12031 3.99991 5.37466 3.99991 5.63987C3.99991 5.90509 4.10526 6.15944 4.2928 6.34698C4.48033 6.53452 4.73468 6.63987 4.99991 6.63987H12.6899L10.6259 8.70388C10.533 8.79678 10.4593 8.90699 10.4091 9.0284C10.3588 9.14972 10.3329 9.27988 10.3329 9.41118C10.3329 9.54256 10.3588 9.67264 10.4091 9.79405C10.4593 9.91537 10.533 10.0257 10.6259 10.1186C10.7188 10.2115 10.8291 10.2852 10.9504 10.3354C11.0718 10.3857 11.2019 10.4116 11.3332 10.4116C11.4646 10.4116 11.5946 10.3857 11.7161 10.3354C11.8374 10.2852 11.9477 10.2115 12.0406 10.1186L15.8112 6.34654Z" fill="#14A0FF"/>
</g>
<defs>
<filter id="filter0_d_1_7205" x="-9.15527e-05" y="0.867554" width="20.1038" height="17.544" filterUnits="userSpaceOnUse" color-interpolation-filters="sRGB">
<feFlood flood-opacity="0" result="BackgroundImageFix"/>
<feColorMatrix in="SourceAlpha" type="matrix" values="0 0 0 0 0 0 0 0 0 0 0 0 0 0 0 0 0 0 127 0" result="hardAlpha"/>
<feOffset dy="4"/>
<feGaussianBlur stdDeviation="2"/>
<feComposite in2="hardAlpha" operator="out"/>
<feColorMatrix type="matrix" values="0 0 0 0 0 0 0 0 0 0 0 0 0 0 0 0 0 0 0.25 0"/>
<feBlend mode="normal" in2="BackgroundImageFix" result="effect1_dropShadow_1_7205"/>
<feBlend mode="normal" in="SourceGraphic" in2="effect1_dropShadow_1_7205" result="shape"/>
</filter>
</defs>
</svg>
