<svg width="80" height="27" viewBox="0 0 80 27" fill="none" xmlns="http://www.w3.org/2000/svg">
<rect x="0.5" y="0.5" width="79" height="26" rx="13" fill="#00CCB4" fill-opacity="0.2" stroke="#00CCB4"/>
<path d="M12 8C8.69155 8 6 10.6915 6 14C6 17.3085 8.69155 20 12 20C15.3085 20 18 17.3085 18 14C18 10.6915 15.3085 8 12 8ZM14.906 12.125L11.4775 16.4107C11.4013 16.5057 11.2883 16.5639 11.1665 16.5706C11.1586 16.571 11.1508 16.5714 11.1429 16.5714C11.0294 16.5714 10.9204 16.5267 10.8398 16.4459L9.12556 14.7316C8.95815 14.5642 8.95815 14.293 9.12556 14.1256C9.29297 13.9582 9.56417 13.9582 9.73159 14.1256L11.1073 15.5013L14.2368 11.5893C14.3846 11.4051 14.6549 11.3746 14.8391 11.5223C15.0241 11.6705 15.054 11.94 14.906 12.125Z" fill="#00CCB4"/>
<path d="M26.8355 10.418H23.4755V9.2H31.5815V10.418H28.2215V19H26.8355V10.418ZM39.3507 15.332C39.3507 15.4347 39.3414 15.57 39.3227 15.738H33.3027C33.3867 16.3913 33.6714 16.9187 34.1567 17.32C34.6514 17.712 35.2627 17.908 35.9907 17.908C36.8774 17.908 37.5914 17.6093 38.1327 17.012L38.8747 17.88C38.5387 18.272 38.1187 18.5707 37.6147 18.776C37.12 18.9813 36.5647 19.084 35.9487 19.084C35.1647 19.084 34.4694 18.9253 33.8627 18.608C33.256 18.2813 32.7847 17.8287 32.4487 17.25C32.122 16.6713 31.9587 16.018 31.9587 15.29C31.9587 14.5713 32.1174 13.9227 32.4347 13.344C32.7614 12.7653 33.2047 12.3173 33.7647 12C34.334 11.6733 34.9734 11.51 35.6827 11.51C36.392 11.51 37.022 11.6733 37.5727 12C38.1327 12.3173 38.5667 12.7653 38.8747 13.344C39.192 13.9227 39.3507 14.5853 39.3507 15.332ZM35.6827 12.644C35.0387 12.644 34.4974 12.84 34.0587 13.232C33.6294 13.624 33.3774 14.1373 33.3027 14.772H38.0627C37.988 14.1467 37.7314 13.638 37.2927 13.246C36.8634 12.8447 36.3267 12.644 35.6827 12.644ZM43.845 19.084C43.2383 19.084 42.655 19.0047 42.095 18.846C41.535 18.678 41.0963 18.468 40.779 18.216L41.339 17.152C41.6656 17.3853 42.0623 17.572 42.529 17.712C42.9956 17.852 43.467 17.922 43.943 17.922C45.119 17.922 45.707 17.586 45.707 16.914C45.707 16.69 45.6276 16.5127 45.469 16.382C45.3103 16.2513 45.1096 16.158 44.867 16.102C44.6336 16.0367 44.2976 15.9667 43.859 15.892C43.2616 15.7987 42.7716 15.6913 42.389 15.57C42.0156 15.4487 41.6936 15.2433 41.423 14.954C41.1523 14.6647 41.017 14.2587 41.017 13.736C41.017 13.064 41.297 12.5273 41.857 12.126C42.417 11.7153 43.1683 11.51 44.111 11.51C44.6056 11.51 45.1003 11.5707 45.595 11.692C46.0896 11.8133 46.4956 11.9767 46.813 12.182L46.239 13.246C45.6323 12.854 44.9183 12.658 44.097 12.658C43.5276 12.658 43.0936 12.7513 42.795 12.938C42.4963 13.1247 42.347 13.372 42.347 13.68C42.347 13.9227 42.431 14.114 42.599 14.254C42.767 14.394 42.9723 14.4967 43.215 14.562C43.467 14.6273 43.817 14.702 44.265 14.786C44.8623 14.8887 45.343 15.0007 45.707 15.122C46.0803 15.234 46.3976 15.43 46.659 15.71C46.9203 15.99 47.051 16.382 47.051 16.886C47.051 17.558 46.7616 18.0947 46.183 18.496C45.6136 18.888 44.8343 19.084 43.845 19.084ZM53.4026 18.566C53.2066 18.734 52.964 18.8647 52.6746 18.958C52.3853 19.042 52.0866 19.084 51.7786 19.084C51.032 19.084 50.4533 18.8833 50.0426 18.482C49.632 18.0807 49.4266 17.5067 49.4266 16.76V12.686H48.1666V11.58H49.4266V9.956H50.7706V11.58H52.8986V12.686H50.7706V16.704C50.7706 17.1053 50.8686 17.4133 51.0646 17.628C51.27 17.8427 51.5593 17.95 51.9326 17.95C52.3433 17.95 52.6933 17.8333 52.9826 17.6L53.4026 18.566ZM61.9874 15.332C61.9874 15.4347 61.9781 15.57 61.9594 15.738H55.9394C56.0234 16.3913 56.3081 16.9187 56.7934 17.32C57.2881 17.712 57.8994 17.908 58.6274 17.908C59.5141 17.908 60.2281 17.6093 60.7694 17.012L61.5114 17.88C61.1754 18.272 60.7554 18.5707 60.2514 18.776C59.7567 18.9813 59.2014 19.084 58.5854 19.084C57.8014 19.084 57.1061 18.9253 56.4994 18.608C55.8927 18.2813 55.4214 17.8287 55.0854 17.25C54.7587 16.6713 54.5954 16.018 54.5954 15.29C54.5954 14.5713 54.7541 13.9227 55.0714 13.344C55.3981 12.7653 55.8414 12.3173 56.4014 12C56.9707 11.6733 57.6101 11.51 58.3194 11.51C59.0287 11.51 59.6587 11.6733 60.2094 12C60.7694 12.3173 61.2034 12.7653 61.5114 13.344C61.8287 13.9227 61.9874 14.5853 61.9874 15.332ZM58.3194 12.644C57.6754 12.644 57.1341 12.84 56.6954 13.232C56.2661 13.624 56.0141 14.1373 55.9394 14.772H60.6994C60.6247 14.1467 60.3681 13.638 59.9294 13.246C59.5001 12.8447 58.9634 12.644 58.3194 12.644ZM71.3537 8.612V19H70.0657V17.824C69.767 18.2347 69.389 18.5473 68.9317 18.762C68.4743 18.9767 67.9703 19.084 67.4197 19.084C66.701 19.084 66.057 18.9253 65.4877 18.608C64.9183 18.2907 64.4703 17.8473 64.1437 17.278C63.8263 16.6993 63.6677 16.0367 63.6677 15.29C63.6677 14.5433 63.8263 13.8853 64.1437 13.316C64.4703 12.7467 64.9183 12.3033 65.4877 11.986C66.057 11.6687 66.701 11.51 67.4197 11.51C67.9517 11.51 68.4417 11.6127 68.8897 11.818C69.3377 12.014 69.711 12.308 70.0097 12.7V8.612H71.3537ZM67.5317 17.908C67.9983 17.908 68.423 17.8007 68.8057 17.586C69.1883 17.362 69.487 17.054 69.7017 16.662C69.9163 16.2607 70.0237 15.8033 70.0237 15.29C70.0237 14.7767 69.9163 14.324 69.7017 13.932C69.487 13.5307 69.1883 13.2227 68.8057 13.008C68.423 12.7933 67.9983 12.686 67.5317 12.686C67.0557 12.686 66.6263 12.7933 66.2437 13.008C65.8703 13.2227 65.5717 13.5307 65.3477 13.932C65.133 14.324 65.0257 14.7767 65.0257 15.29C65.0257 15.8033 65.133 16.2607 65.3477 16.662C65.5717 17.054 65.8703 17.362 66.2437 17.586C66.6263 17.8007 67.0557 17.908 67.5317 17.908Z" fill="#00CCB4"/>
</svg>
